HIERARCHY
ROOT Hips
{
    OFFSET 0.000000 0.000000 0.000000
    CHANNELS 6 Xposition Yposition Zposition Zrotation Xrotation Yrotation
    JOINT Spine
    {
        OFFSET -0.000000 8.339920 0.000000
        CHANNELS 3 Zrotation Xrotation Yrotation
        JOINT Spine1
        {
            OFFSET -0.000000 25.214485 0.000000
            CHANNELS 3 Zrotation Xrotation Yrotation
            JOINT Neck
            {
                OFFSET -0.000000 25.110935 2.282812
                CHANNELS 3 Zrotation Xrotation Yrotation
                JOINT Head
                {
                    OFFSET -0.000000 14.238888 -2.034127
                    CHANNELS 3 Zrotation Xrotation Yrotation
                    End Site
                    {
                        OFFSET -0.000000 25.426584 0.000000
                    }
                }
            }
            JOINT LeftShoulder
            {
                OFFSET 4.025024 23.158985 -0.185822
                CHANNELS 3 Zrotation Xrotation Yrotation
                JOINT LeftArm
                {
                    OFFSET 11.674057 0.000000 0.000000
                    CHANNELS 3 Zrotation Xrotation Yrotation
                    JOINT LeftForeArm
                    {
                        OFFSET 31.688633 0.000000 0.000000
                        CHANNELS 3 Zrotation Xrotation Yrotation
                        JOINT LeftHand
                        {
                            OFFSET 29.704493 0.000000 0.000000
                            CHANNELS 3 Zrotation Xrotation Yrotation
                            End Site
                            {
                                OFFSET 15.255952 0.000000 0.000000
                            }
                        }
                    }
                }
            }
            JOINT RightShoulder
            {
                OFFSET -4.099539 23.158985 -0.185822
                CHANNELS 3 Zrotation Xrotation Yrotation
                JOINT RightArm
                {
                    OFFSET -11.674057 0.000000 0.000000
                    CHANNELS 3 Zrotation Xrotation Yrotation
                    JOINT RightForeArm
                    {
                        OFFSET -31.688633 0.000000 0.000000
                        CHANNELS 3 Zrotation Xrotation Yrotation
                        JOINT RightHand
                        {
                            OFFSET -29.704493 0.000000 0.000000
                            CHANNELS 3 Zrotation Xrotation Yrotation
                            End Site
                            {
                                OFFSET -15.255952 0.000000 0.000000
                            }
                        }
                    }
                }
            }
        }
    }
    JOINT LeftUpLeg
    {
        OFFSET 10.170634 0.000000 0.000000
        CHANNELS 3 Zrotation Xrotation Yrotation
        JOINT LeftLeg
        {
            OFFSET -0.000000 -41.352962 0.000000
            CHANNELS 3 Zrotation Xrotation Yrotation
            JOINT LeftFoot
            {
                OFFSET -0.000000 -47.535004 0.000000
                CHANNELS 3 Zrotation Xrotation Yrotation
                JOINT LeftToeBase
                {
                    OFFSET -0.000000 -6.610912 15.255952
                    CHANNELS 3 Zrotation Xrotation Yrotation
                    End Site
                    {
                        OFFSET -0.000000 0.000000 4.068254
                    }
                }
            }
        }
    }
    JOINT RightUpLeg
    {
        OFFSET -10.170634 0.000000 0.000000
        CHANNELS 3 Zrotation Xrotation Yrotation
        JOINT RightLeg
        {
            OFFSET -0.000000 -41.352962 0.000000
            CHANNELS 3 Zrotation Xrotation Yrotation
            JOINT RightFoot
            {
                OFFSET -0.000000 -47.535004 0.000000
                CHANNELS 3 Zrotation Xrotation Yrotation
                JOINT RightToeBase
                {
                    OFFSET -0.000000 -6.610912 15.255952
                    CHANNELS 3 Zrotation Xrotation Yrotation
                    End Site
                    {
                        OFFSET -0.000000 0.000000 4.068254
                    }
                }
            }
        }
    }
}
MOTION
Frames:    11
Frame Time:    0.008333
64.156250    136.233002    41.455894    -0.997528    -5.023812    85.425385    2.448225    -5.205816    -2.252930    2.021979    -0.085335    -2.362765    -8.280828    31.222576    1.693451    7.208839    -3.723816    1.794528    15.013074    0.135228    -0.324704    -22.692459    -9.441271    8.116483    5.840253    -20.538292    2.310460    6.291361    -20.624384    0.471667    -19.617510    1.291563    -4.019722    23.738649    -7.255890    4.219875    -3.511955    -11.410843    0.545873    -14.672523    -11.701308    2.432365    5.359170    10.098204    -1.873604    0.121593    -8.625818    6.227424    -4.245119    3.111554    3.693826    0.000000    0.000000    0.000000    7.873089    6.628664    4.418200    -3.597809    0.731822    3.367321    -6.895919    -5.596108    -17.117695    0.000000    0.000000    0.000000    
64.158142    136.234055    41.458641    -1.002669    -5.026031    85.406425    2.449232    -5.204803    -2.246996    2.026340    -0.082614    -2.356894    -8.281845    31.188145    1.710904    7.193387    -3.687058    1.810458    15.005534    0.157748    -0.324884    -22.700052    -9.451282    8.109715    5.840538    -20.548666    2.327373    6.246113    -20.640234    0.383600    -19.609066    1.277421    -3.988079    23.729210    -7.213368    4.187882    -3.510828    -11.413088    0.508330    -14.677246    -11.763391    2.896924    5.362815    10.097489    -1.860910    0.113792    -8.627300    6.216375    -4.235903    3.115133    3.706141    0.000000    0.000000    0.000000    7.876486    6.623915    4.411222    -3.599795    0.733279    3.374162    -6.909859    -5.585953    -17.102243    0.000000    0.000000    0.000000    
64.156357    136.233429    41.459728    -1.014835    -5.026148    85.386444    2.444871    -5.203780    -2.238813    2.035577    -0.081988    -2.348482    -8.254343    31.186836    1.731694    7.143513    -3.717223    1.829391    15.012484    0.135063    -0.316700    -22.730324    -9.402351    8.102916    5.849207    -20.547642    2.340147    6.220365    -20.641533    0.355055    -19.604197    1.280466    -3.992371    23.727522    -7.201883    4.197412    -3.510444    -11.407152    0.515285    -14.659510    -11.759291    2.916603    5.358205    10.082734    -1.836514    0.123079    -8.607256    6.218791    -4.229371    3.098362    3.687507    0.000000    0.000000    0.000000    7.877295    6.612584    4.420316    -3.602852    0.733356    3.384934    -6.889540    -5.596011    -17.098650    0.000000    0.000000    0.000000    
64.156471    136.233047    41.461250    -1.019763    -5.026993    85.370018    2.379601    -5.192774    -2.239383    2.184388    -0.083913    -2.345722    -8.379573    31.159378    1.769845    7.175242    -3.703461    1.857576    14.918615    0.142129    -0.313176    -22.723469    -9.403458    8.099141    5.840980    -20.544287    2.346885    6.169374    -20.639057    0.343752    -19.733747    1.292480    -3.977828    23.782557    -7.238056    4.194033    -3.507313    -11.390375    0.523977    -14.610198    -11.726017    2.796992    5.360612    10.075810    -1.837564    0.116890    -8.607044    6.211547    -4.208926    3.096109    3.715522    0.000000    0.000000    0.000000    7.884710    6.609184    4.412093    -3.616113    0.729034    3.378207    -6.877179    -5.591418    -17.074228    0.000000    0.000000    0.000000    
64.156052    136.231094    41.462830    -1.024780    -5.026321    85.342743    2.382456    -5.195987    -2.236409    2.187653    -0.062725    -2.343352    -8.396692    31.125759    1.804613    7.168358    -3.694839    1.892430    14.927613    0.134851    -0.295890    -22.751087    -9.362230    8.103072    5.845247    -20.542723    2.352034    6.112349    -20.638968    0.323938    -19.738167    1.299289    -3.966456    23.781010    -7.280005    4.215745    -3.493341    -11.381730    0.521788    -14.602941    -11.723507    2.846207    5.355079    10.070253    -1.799925    0.120324    -8.589767    6.198032    -4.248220    3.075890    3.714558    0.000000    0.000000    0.000000    7.883950    6.601145    4.421905    -3.616817    0.732760    3.399182    -6.880140    -5.588605    -17.077232    0.000000    0.000000    0.000000    
64.155159    136.229279    41.465385    -1.029055    -5.025440    85.323120    2.385847    -5.195703    -2.232498    2.177425    -0.049651    -2.339824    -8.360475    31.170055    1.834196    7.108499    -3.796464    1.920432    14.941304    0.121788    -0.284870    -22.843437    -9.180464    8.086946    5.956897    -20.606234    2.385385    6.006612    -20.706549    0.323086    -19.724480    1.295015    -3.959455    23.779327    -7.240972    4.228610    -3.508417    -11.405274    0.509824    -14.575566    -11.746985    2.849001    5.351893    10.066936    -1.774802    0.120048    -8.582069    6.194211    -4.232088    3.066331    3.716000    0.000000    0.000000    0.000000    7.880357    6.595563    4.436698    -3.611386    0.735933    3.412306    -6.894217    -5.596071    -17.096840    0.000000    0.000000    0.000000    
64.152176    136.227661    41.466770    -1.039091    -5.018414    85.310585    2.440107    -5.186901    -2.208595    2.023965    -0.055113    -2.318193    -8.207439    31.143070    1.824326    7.086035    -3.757297    1.928823    15.021087    0.120965    -0.280134    -22.847231    -9.167269    8.044437    5.959097    -20.610647    2.388836    6.032986    -20.709749    0.350519    -19.533911    1.284256    -3.990463    23.682970    -7.247671    4.217676    -3.515665    -11.381495    0.556771    -14.460128    -11.694921    2.655807    5.345964    10.053338    -1.777202    0.121256    -8.579380    6.223567    -4.226613    3.066404    3.689451    0.000000    0.000000    0.000000    7.877501    6.582669    4.431397    -3.616021    0.739491    3.422240    -6.898042    -5.605448    -17.094128    0.000000    0.000000    0.000000    
64.153275    136.226624    41.468204    -1.044276    -5.019920    85.292152    2.434811    -5.186903    -2.192287    2.035667    -0.041296    -2.301851    -8.174698    31.128231    1.830239    7.057834    -3.756164    1.936082    15.029297    0.116951    -0.293365    -22.867844    -9.188643    8.034725    5.959876    -20.589792    2.396300    6.033247    -20.689941    0.337110    -19.549482    1.280643    -3.996808    23.693762    -7.124207    4.189626    -3.523516    -11.508199    0.549497    -14.613787    -11.848072    2.837890    5.347772    10.052938    -1.771128    0.114561    -8.584535    6.213634    -4.236341    3.068843    3.729662    0.000000    0.000000    0.000000    7.879178    6.578996    4.430920    -3.618219    0.732737    3.414624    -6.905436    -5.600646    -17.063953    0.000000    0.000000    0.000000    
64.151993    136.225220    41.472912    -1.048679    -5.025438    85.278221    2.445150    -5.188206    -2.188088    2.026683    -0.014251    -2.298629    -8.170807    31.087360    1.854191    7.059434    -3.731996    1.963814    15.050226    0.095590    -0.288319    -22.814278    -9.355650    8.056849    5.839657    -20.516212    2.363348    6.153702    -20.611492    0.349946    -19.535442    1.277280    -4.011736    23.703909    -7.057940    4.219496    -3.593709    -11.526552    0.556799    -14.440568    -11.840031    2.664167    5.359623    10.051197    -1.750674    0.102460    -8.594167    6.229964    -4.235147    3.074332    3.710760    0.000000    0.000000    0.000000    7.888412    6.568320    4.441853    -3.622035    0.742472    3.432276    -6.905581    -5.600452    -17.073542    0.000000    0.000000    0.000000    
64.154037    136.225754    41.474579    -1.050386    -5.025738    85.270546    2.426409    -5.184002    -2.180017    2.064888    -0.004649    -2.289819    -8.155467    31.097481    1.856260    7.027063    -3.757254    1.963084    15.032896    0.092741    -0.294407    -22.833887    -9.355906    8.040991    5.848163    -20.537497    2.368972    6.212102    -20.632769    0.354726    -19.555552    1.272855    -4.019960    23.701975    -7.004765    4.212154    -3.583508    -11.505795    0.573635    -14.514809    -11.811546    2.591957    5.355524    10.051085    -1.728910    0.107831    -8.591745    6.228099    -4.238300    3.076513    3.699771    0.000000    0.000000    0.000000    7.893167    6.571102    4.442999    -3.629183    0.737458    3.425614    -6.907340    -5.601130    -17.062094    0.000000    0.000000    0.000000    
64.150322    136.226746    41.475887    -1.068156    -5.025038    85.262352    2.425529    -5.190760    -2.165326    2.051611    0.002319    -2.275338    -8.089834    31.112127    1.850423    7.003385    -3.786758    1.963077    15.064107    0.082311    -0.306435    -22.869329    -9.349448    8.032605    5.845390    -20.560791    2.349481    6.285961    -20.653522    0.380855    -19.519381    1.298114    -4.045529    23.682491    -7.021842    4.227310    -3.582372    -11.500257    0.565741    -14.532678    -11.810784    2.624929    5.359918    10.027767    -1.741257    0.108222    -8.576799    6.207550    -4.233110    3.055375    3.724058    0.000000    0.000000    0.000000    7.892221    6.547145    4.446040    -3.625908    0.743130    3.438338    -6.904024    -5.602496    -17.073589    0.000000    0.000000    0.000000    
